<?xml version="1.0" encoding="UTF-8" standalone="no"?>
<!-- Created with Inkscape (http://www.inkscape.org/) -->

<svg
   xmlns:dc="http://purl.org/dc/elements/1.1/"
   xmlns:cc="http://creativecommons.org/ns#"
   xmlns:rdf="http://www.w3.org/1999/02/22-rdf-syntax-ns#"
   xmlns:svg="http://www.w3.org/2000/svg"
   xmlns="http://www.w3.org/2000/svg"
   xmlns:sodipodi="http://sodipodi.sourceforge.net/DTD/sodipodi-0.dtd"
   xmlns:inkscape="http://www.inkscape.org/namespaces/inkscape"
   width="66mm"
   height="66mm"
   viewBox="0 0 66 66.000001"
   version="1.1"
   id="svg8"
   inkscape:version="0.92.2 5c3e80d, 2017-08-06"
   sodipodi:docname="inugami-logo.svg"
   inkscape:export-filename="/Users/patrickguillerm/dev/inugami/inugami-icons-creative-commons/logo/inugami-logo-dark.png"
   inkscape:export-xdpi="197.03999"
   inkscape:export-ydpi="197.03999">
  <defs
     id="defs2" />
  <sodipodi:namedview
     id="base"
     pagecolor="#ffffff"
     bordercolor="#666666"
     borderopacity="1.0"
     inkscape:pageopacity="0.0"
     inkscape:pageshadow="2"
     inkscape:zoom="0.70710678"
     inkscape:cx="502.68362"
     inkscape:cy="-80.775198"
     inkscape:document-units="mm"
     inkscape:current-layer="layer2"
     showgrid="false"
     showguides="true"
     inkscape:guide-bbox="true"
     fit-margin-top="0"
     fit-margin-left="0"
     fit-margin-right="0"
     fit-margin-bottom="0"
     inkscape:window-width="1650"
     inkscape:window-height="998"
     inkscape:window-x="2166"
     inkscape:window-y="2182"
     inkscape:window-maximized="0" />
  <metadata
     id="metadata5">
    <rdf:RDF>
      <cc:Work
         rdf:about="">
        <dc:format>image/svg+xml</dc:format>
        <dc:type
           rdf:resource="http://purl.org/dc/dcmitype/StillImage" />
        <dc:title />
      </cc:Work>
    </rdf:RDF>
  </metadata>
  <g
     inkscape:label="Calque 1"
     inkscape:groupmode="layer"
     id="layer1"
     transform="translate(-52.460418,-72.044787)" />
  <g
     inkscape:groupmode="layer"
     id="layer2"
     inkscape:label="Calque 2"
     transform="translate(-52.460418,-72.044787)">
    <rect
       style="opacity:1;fill:#000000;fill-opacity:1;stroke:none;stroke-width:1;stroke-linecap:round;stroke-linejoin:round;stroke-miterlimit:4;stroke-dasharray:none;stroke-dashoffset:0;stroke-opacity:1"
       id="rect878"
       width="73.025002"
       height="69.982292"
       x="49.682293"
       y="70.179161" />
    <path
       inkscape:connector-curvature="0"
       id="path967"
       d="m 103.29536,86.222347 c 0,0 -2.3953,4.88258 -2.84588,7.661151 -7.820616,3.357563 -9.295354,-0.107559 -9.637193,-0.649169 6.010042,-5.834828 12.483073,-7.011982 12.483073,-7.011982 z"
       style="opacity:1;fill:#ffffff;fill-opacity:0.67058824;stroke:#484848;stroke-width:0.90000004;stroke-linecap:round;stroke-linejoin:round;stroke-miterlimit:4;stroke-dasharray:none;stroke-dashoffset:0;stroke-opacity:1"
       sodipodi:nodetypes="cccc" />
    <path
       inkscape:connector-curvature="0"
       id="path963"
       d="m 97.524032,103.43173 5.894198,9.57776 c 0,0 -9.220746,15.15666 -10.286915,20.26409 -1.332713,-3.86389 -4.942197,-12.6373 -4.942197,-12.6373 0,0 -2.996323,4.50349 -3.440561,6.19117 -1.510407,-5.81804 -4.62988,-13.35618 -4.62988,-13.35618 -0.71078,0.44412 -3.719474,3.47992 -4.741221,5.1676 -0.488661,-1.7765 -3.139362,-13.30795 -4.205532,-14.81797 0,0 -9.185627,-3.73255 -12.640984,-6.715962 -0.596834,-5.935422 0.363669,-6.102887 0.363669,-6.102887 0.471184,-0.157021 8.750857,1.598776 10.667009,2.321076 11.143188,-3.957192 14.81724,-5.340206 23.938305,1.154751 8.307247,-5.773619 17.088867,-6.218747 17.088867,-6.218747 -5.88694,4.366856 -9.7617,8.41014 -13.064758,15.172599 z"
       style="opacity:1;fill:#ffffff;fill-opacity:1;stroke:#484848;stroke-width:0.90000004;stroke-linecap:round;stroke-linejoin:round;stroke-miterlimit:4;stroke-dasharray:none;stroke-dashoffset:0;stroke-opacity:1"
       sodipodi:nodetypes="cccccccccccccc" />
    <path
       inkscape:connector-curvature="0"
       id="path961"
       d="m 58.894609,91.00205 c 0.973519,0.09125 3.361684,0.623504 3.361684,0.623504 -1.214033,1.77171 -2.130239,1.525789 -3.772388,1.459905 0,-1.399079 0.410704,-2.083409 0.410704,-2.083409 z"
       style="opacity:1;fill:#484848;fill-opacity:1;stroke:none;stroke-width:0.5;stroke-linecap:round;stroke-linejoin:round;stroke-miterlimit:4;stroke-dasharray:none;stroke-dashoffset:0;stroke-opacity:1"
       sodipodi:nodetypes="cccc" />
    <path
       style="fill:none;stroke:#484848;stroke-width:0.90000004;stroke-linecap:butt;stroke-linejoin:miter;stroke-miterlimit:4;stroke-dasharray:none;stroke-opacity:1"
       d="m 86.024866,109.48287 c 0,0 -8.744217,-3.20021 -14.852942,-5.66197 m 26.352108,-0.38917 c -1.803781,3.52273 -2.790021,5.75017 -4.067204,10.10259"
       id="path954"
       inkscape:connector-curvature="0"
       sodipodi:nodetypes="cccc" />
    <path
       inkscape:connector-curvature="0"
       id="path965"
       d="m 83.400464,93.850134 c -0.932899,0.621775 -1.999069,1.66028 -1.799162,2.903829 -0.59972,-0.399713 -3.195744,-2.131798 -7.327152,-1.398992 4.171259,-2.851879 7.194455,-1.993373 9.126314,-1.504837 z"
       style="opacity:1;fill:#ececec;fill-opacity:1;stroke:#484848;stroke-width:0.60000002;stroke-linecap:round;stroke-linejoin:round;stroke-miterlimit:4;stroke-dasharray:none;stroke-dashoffset:0;stroke-opacity:1"
       sodipodi:nodetypes="cccc" />
    <path
       sodipodi:nodetypes="ccc"
       style="opacity:1;fill:none;fill-opacity:0.3429952;stroke:#cc0000;stroke-width:0.90000004;stroke-linecap:round;stroke-linejoin:round;stroke-miterlimit:4;stroke-dasharray:none;stroke-dashoffset:0;stroke-opacity:1"
       d="m 79.075922,110.87081 c -0.159639,0.20127 -1.80562,2.02166 -2.782992,3.65545 -0.332099,-1.49218 -1.634903,-6.33418 -1.874362,-7.01851"
       id="path975"
       inkscape:connector-curvature="0" />
    <path
       inkscape:connector-curvature="0"
       id="path977"
       d="m 96.88947,114.32026 c -2.332167,3.1163 -3.412176,5.88061 -4.0159,7.89659 -0.617958,-3.54985 -2.835511,-8.22038 -3.074969,-8.90471"
       style="opacity:1;fill:none;fill-opacity:0.3429952;stroke:#cc0000;stroke-width:0.90000004;stroke-linecap:round;stroke-linejoin:round;stroke-miterlimit:4;stroke-dasharray:none;stroke-dashoffset:0;stroke-opacity:1"
       sodipodi:nodetypes="ccc" />
    <path
       inkscape:connector-curvature="0"
       id="path979"
       d="m 86.705137,115.99941 c -0.15964,0.20127 -1.199222,1.61749 -1.893609,2.92796 -0.829503,-3.18294 -2.528855,-6.79429 -2.763745,-7.46309"
       style="opacity:1;fill:none;fill-opacity:0.3429952;stroke:#cc0000;stroke-width:0.90000004;stroke-linecap:round;stroke-linejoin:round;stroke-miterlimit:4;stroke-dasharray:none;stroke-dashoffset:0;stroke-opacity:1"
       sodipodi:nodetypes="ccc" />
    <path
       id="path983"
       style="fill:none;fill-rule:evenodd;stroke:#cc0000;stroke-width:0.90000004;stroke-linecap:round;stroke-miterlimit:4;stroke-dasharray:none;stroke-opacity:1"
       d="m 67.573492,96.537613 c 0.397765,0.533265 1.108511,0.06516 1.124828,-0.244071 0.04422,-0.837965 -1.412515,-1.4991 -2.447048,-1.528587 -1.850527,-0.05269 -2.610489,1.265122 -2.052263,2.504863 0.774504,1.720063 4.443211,3.508802 11.264936,2.263396 6.821727,-1.245411 8.219332,7.551706 12.565629,6.035966 5.027894,-1.75346 -0.617115,-5.818562 1.669916,-7.905983 2.287032,-2.087422 5.27354,0.379675 5.586732,2.033704 0.213436,1.127119 -0.471601,2.439889 -1.711671,2.546759 -0.693255,0.0597 -1.588117,-0.44317 -1.44834,-1.24073 0.05159,-0.29432 0.591954,-0.79798 0.790003,-0.32651"
       inkscape:connector-curvature="0"
       sodipodi:nodetypes="cccszszcccc" />
    <path
       sodipodi:nodetypes="ccc"
       style="opacity:1;fill:none;fill-opacity:0.3429952;stroke:#cc0000;stroke-width:0.60000002;stroke-linecap:round;stroke-linejoin:round;stroke-miterlimit:4;stroke-dasharray:none;stroke-dashoffset:0;stroke-opacity:1"
       d="m 94.20617,95.994273 c -8.560932,-4.281146 -8.681869,3.284674 -7.380623,5.992947 -2.194594,-2.701092 -5.224245,-5.233257 -1.722956,-8.266654"
       id="path989"
       inkscape:connector-curvature="0" />
    <path
       inkscape:connector-curvature="0"
       id="path971"
       d="m 88.189118,120.63628 c -1.510408,-5.81804 -3.328752,-9.71624 -3.328752,-9.71624"
       style="opacity:1;fill:#c9c9c9;fill-opacity:0.3429952;stroke:#484848;stroke-width:0.90000004;stroke-linecap:round;stroke-linejoin:round;stroke-miterlimit:4;stroke-dasharray:none;stroke-dashoffset:0;stroke-opacity:1"
       sodipodi:nodetypes="cc" />
    <path
       sodipodi:nodetypes="ccc"
       style="opacity:1;fill:#c9c9c9;fill-opacity:0.3429952;stroke:#484848;stroke-width:0.90000004;stroke-linecap:round;stroke-linejoin:round;stroke-miterlimit:4;stroke-dasharray:none;stroke-dashoffset:0;stroke-opacity:1"
       d="m 84.748557,126.82745 c -1.510407,-5.81804 -4.62988,-13.35618 -4.62988,-13.35618 -0.773605,-2.16244 -1.851286,-4.94461 -1.851286,-4.94461"
       id="path969"
       inkscape:connector-curvature="0" />
  </g>
</svg>
