<?xml version="1.0" encoding="UTF-8" standalone="no"?>
<!-- Created with Inkscape (http://www.inkscape.org/) -->

<svg
   xmlns:dc="http://purl.org/dc/elements/1.1/"
   xmlns:cc="http://creativecommons.org/ns#"
   xmlns:rdf="http://www.w3.org/1999/02/22-rdf-syntax-ns#"
   xmlns:svg="http://www.w3.org/2000/svg"
   xmlns="http://www.w3.org/2000/svg"
   xmlns:sodipodi="http://sodipodi.sourceforge.net/DTD/sodipodi-0.dtd"
   xmlns:inkscape="http://www.inkscape.org/namespaces/inkscape"
   width="66mm"
   height="66mm"
   viewBox="0 0 66 66.000001"
   version="1.1"
   id="svg8"
   inkscape:version="0.92.2 5c3e80d, 2017-08-06"
   sodipodi:docname="inugami-logo.svg"
   inkscape:export-filename="/Users/patrickguillerm/dev/inugami/inugami-icons-creative-commons/logo/inugami-logo.png"
   inkscape:export-xdpi="197.03999"
   inkscape:export-ydpi="197.03999">
  <defs
     id="defs2" />
  <sodipodi:namedview
     id="base"
     pagecolor="#ffffff"
     bordercolor="#666666"
     borderopacity="1.0"
     inkscape:pageopacity="0.0"
     inkscape:pageshadow="2"
     inkscape:zoom="2"
     inkscape:cx="56.477521"
     inkscape:cy="139.13919"
     inkscape:document-units="mm"
     inkscape:current-layer="layer2"
     showgrid="false"
     showguides="true"
     inkscape:guide-bbox="true"
     fit-margin-top="0"
     fit-margin-left="0"
     fit-margin-right="0"
     fit-margin-bottom="0"
     inkscape:window-width="1914"
     inkscape:window-height="1142"
     inkscape:window-x="3046"
     inkscape:window-y="2183"
     inkscape:window-maximized="0" />
  <metadata
     id="metadata5">
    <rdf:RDF>
      <cc:Work
         rdf:about="">
        <dc:format>image/svg+xml</dc:format>
        <dc:type
           rdf:resource="http://purl.org/dc/dcmitype/StillImage" />
        <dc:title />
      </cc:Work>
    </rdf:RDF>
  </metadata>
  <g
     inkscape:label="Calque 1"
     inkscape:groupmode="layer"
     id="layer1"
     transform="translate(-52.460418,-72.044787)" />
  <g
     inkscape:groupmode="layer"
     id="layer2"
     inkscape:label="Calque 2"
     transform="translate(-52.460418,-72.044787)">
    <g
       id="g845"
       transform="matrix(0.82463108,0,0,0.82436019,14.987108,18.450047)"
       style="stroke-width:1.21286273">
      <path
         sodipodi:nodetypes="cccc"
         style="opacity:1;fill:#ffffff;fill-opacity:0.67058824;stroke:#000000;stroke-width:1.09157646;stroke-linecap:round;stroke-linejoin:round;stroke-miterlimit:4;stroke-dasharray:none;stroke-dashoffset:0;stroke-opacity:1"
         d="m 108.29959,76.506816 c 0,0 -2.90469,5.922871 -3.45109,9.293449 -9.483772,4.072933 -11.272133,-0.130476 -11.686668,-0.787481 7.288158,-7.078008 15.137758,-8.505968 15.137758,-8.505968 z"
         id="path967"
         inkscape:connector-curvature="0" />
      <path
         sodipodi:nodetypes="cccccccccccccc"
         style="opacity:1;fill:#ffffff;fill-opacity:1;stroke:#000000;stroke-width:1.09157646;stroke-linecap:round;stroke-linejoin:round;stroke-miterlimit:4;stroke-dasharray:none;stroke-dashoffset:0;stroke-opacity:1"
         d="m 101.30092,97.382862 7.14767,11.618418 c 0,0 -11.181653,18.38596 -12.474558,24.58159 -1.616132,-4.68713 -5.993222,-15.32983 -5.993222,-15.32983 0,0 -3.633531,5.46302 -4.172242,7.51028 -1.831616,-7.05764 -5.614486,-16.20188 -5.614486,-16.20188 -0.861937,0.53875 -4.510471,4.22136 -5.749506,6.26862 -0.592581,-2.155 -3.80699,-16.143359 -5.099895,-17.975111 0,0 -11.139075,-4.527812 -15.32926,-8.146877 -0.723759,-7.200035 0.441008,-7.40318 0.441008,-7.40318 0.571388,-0.190477 10.611845,1.939414 12.935492,2.815609 13.512938,-4.80032 17.968326,-6.478001 29.029109,1.400784 10.07389,-7.003758 20.72304,-7.543725 20.72304,-7.543725 -7.13887,5.297266 -11.83766,10.202021 -15.84315,18.405302 z"
         id="path963"
         inkscape:connector-curvature="0" />
      <path
         sodipodi:nodetypes="cccc"
         style="opacity:1;fill:#000000;fill-opacity:1;stroke:none;stroke-width:0.60643137;stroke-linecap:round;stroke-linejoin:round;stroke-miterlimit:4;stroke-dasharray:none;stroke-dashoffset:0;stroke-opacity:1"
         d="m 54.456429,82.304892 c 1.180551,0.110686 4.076592,0.756348 4.076592,0.756348 -1.472214,2.149194 -2.583263,1.850877 -4.574638,1.770956 0,-1.69717 0.498046,-2.527304 0.498046,-2.527304 z"
         id="path961"
         inkscape:connector-curvature="0" />
      <path
         sodipodi:nodetypes="cccc"
         inkscape:connector-curvature="0"
         id="path954"
         d="m 87.356301,104.72327 c 0,0 -10.603792,-3.88205 -18.01162,-6.868321 m 31.956239,-0.472087 c -2.187379,4.273288 -3.383357,6.975308 -4.93215,12.255068"
         style="fill:none;stroke:#000000;stroke-width:1.09157646;stroke-linecap:butt;stroke-linejoin:miter;stroke-miterlimit:4;stroke-dasharray:none;stroke-opacity:1" />
      <path
         sodipodi:nodetypes="cccc"
         style="opacity:1;fill:none;fill-opacity:0.67058824;stroke:#000000;stroke-width:0.72771764;stroke-linecap:round;stroke-linejoin:round;stroke-miterlimit:4;stroke-dasharray:none;stroke-dashoffset:0;stroke-opacity:1"
         d="m 84.173785,85.759794 c -1.131293,0.754251 -2.424198,2.014023 -2.181778,3.522524 -0.727259,-0.484876 -3.875362,-2.586003 -8.88537,-1.697064 5.058333,-3.459505 8.724453,-2.418085 11.067148,-1.82546 z"
         id="path965"
         inkscape:connector-curvature="0" />
      <path
         inkscape:connector-curvature="0"
         id="path975"
         d="m 78.929571,106.40692 c -0.193589,0.24416 -2.18961,2.4524 -3.374833,4.43429 -0.402724,-1.81011 -1.982587,-7.68375 -2.27297,-8.51389"
         style="opacity:1;fill:none;fill-opacity:0.3429952;stroke:#cc0000;stroke-width:1.09157646;stroke-linecap:round;stroke-linejoin:round;stroke-miterlimit:4;stroke-dasharray:none;stroke-dashoffset:0;stroke-opacity:1"
         sodipodi:nodetypes="ccc" />
      <path
         sodipodi:nodetypes="ccc"
         style="opacity:1;fill:none;fill-opacity:0.3429952;stroke:#cc0000;stroke-width:1.09157646;stroke-linecap:round;stroke-linejoin:round;stroke-miterlimit:4;stroke-dasharray:none;stroke-dashoffset:0;stroke-opacity:1"
         d="m 100.53141,110.59132 c -2.828134,3.78027 -4.137822,7.13355 -4.869936,9.57905 -0.749375,-4.30618 -3.43852,-9.97182 -3.728902,-10.80196"
         id="path977"
         inkscape:connector-curvature="0" />
      <path
         sodipodi:nodetypes="ccc"
         style="opacity:1;fill:none;fill-opacity:0.3429952;stroke:#cc0000;stroke-width:1.09157646;stroke-linecap:round;stroke-linejoin:round;stroke-miterlimit:4;stroke-dasharray:none;stroke-dashoffset:0;stroke-opacity:1"
         d="m 88.181241,112.62823 c -0.19359,0.24416 -1.454253,1.96212 -2.29631,3.5518 -1.005909,-3.8611 -3.066651,-8.24189 -3.351493,-9.05319"
         id="path979"
         inkscape:connector-curvature="0" />
      <path
         sodipodi:nodetypes="cccszszcccc"
         inkscape:connector-curvature="0"
         d="m 64.980994,89.019872 c 0.482355,0.646884 1.34425,0.07904 1.364038,-0.296073 0.05363,-1.016503 -1.712906,-1.818501 -2.967446,-1.85427 -2.244067,-0.06392 -3.165645,1.534671 -2.488705,3.038553 0.939213,2.086543 5.38812,4.256399 13.660577,2.74564 8.272459,-1.51076 9.967284,9.160688 15.237879,7.321993 6.097144,-2.127051 -0.748352,-7.058268 2.025047,-9.590439 2.7734,-2.532173 6.395029,0.460569 6.774826,2.467009 0.258825,1.367269 -0.571894,2.95974 -2.075681,3.089376 -0.840686,0.07244 -1.925852,-0.537588 -1.756349,-1.505077 0.06256,-0.357029 0.717841,-0.967999 0.958007,-0.396079"
         style="fill:none;fill-rule:evenodd;stroke:#cc0000;stroke-width:1.09157646;stroke-linecap:round;stroke-miterlimit:4;stroke-dasharray:none;stroke-opacity:1"
         id="path983" />
      <path
         inkscape:connector-curvature="0"
         id="path989"
         d="M 97.27747,88.360767 C 86.89594,83.167472 86.749284,92.34528 88.327258,95.630586 85.665954,92.353991 81.992007,89.282318 86.237892,85.60262"
         style="opacity:1;fill:none;fill-opacity:0.3429952;stroke:#cc0000;stroke-width:0.72771764;stroke-linecap:round;stroke-linejoin:round;stroke-miterlimit:4;stroke-dasharray:none;stroke-dashoffset:0;stroke-opacity:1"
         sodipodi:nodetypes="ccc" />
      <path
         sodipodi:nodetypes="cc"
         style="opacity:1;fill:#c9c9c9;fill-opacity:0.3429952;stroke:#000000;stroke-width:1.09157646;stroke-linecap:round;stroke-linejoin:round;stroke-miterlimit:4;stroke-dasharray:none;stroke-dashoffset:0;stroke-opacity:1"
         d="m 89.98081,118.25304 c -1.831616,-7.05764 -4.036655,-11.7864 -4.036655,-11.7864"
         id="path971"
         inkscape:connector-curvature="0" />
      <path
         inkscape:connector-curvature="0"
         id="path969"
         d="m 85.808568,125.76332 c -1.831616,-7.05764 -5.614486,-16.20188 -5.614486,-16.20188 -0.938123,-2.62317 -2.244988,-5.99811 -2.244988,-5.99811"
         style="opacity:1;fill:#c9c9c9;fill-opacity:0.3429952;stroke:#000000;stroke-width:1.09157646;stroke-linecap:round;stroke-linejoin:round;stroke-miterlimit:4;stroke-dasharray:none;stroke-dashoffset:0;stroke-opacity:1"
         sodipodi:nodetypes="ccc" />
    </g>
  </g>
</svg>
